# xmcd CD database file
#
# Track frame offsets:
#	150
#	22697
#	37200
#	53570
#	66130
#	80695
#	97235
#	114257
#	130177
#	147470
#
# Disc length: 2240 seconds
#
# Revision: 1
# Processed by: cddbd v1.5PL3 Copyright (c) Steve Scherf et al.
# Submitted via: CDex 1.50beta10
#
DISCID=8708be0a
DTITLE=Alice - Alice　?
DYEAR=1900
DGENRE=Folk-Rock
TTITLE0=愛の光
TTITLE1=帰り道
TTITLE2=おまえ
TTITLE3=知らない街で
TTITLE4=白い夏
TTITLE5=誰もいない
TTITLE6=散りゆく花
TTITLE7=そこにいる貴方
TTITLE8=無題
TTITLE9=雪
EXTD=
EXTT0=
EXTT1=
EXTT2=
EXTT3=
EXTT4=
EXTT5=
EXTT6=
EXTT7=
EXTT8=
EXTT9=
PLAYORDER=
